<?xml version="1.0" encoding="us-ascii" standalone="no"?><svg xmlns="http://www.w3.org/2000/svg" xmlns:xlink="http://www.w3.org/1999/xlink" contentStyleType="text/css" height="920px" preserveAspectRatio="none" style="width:952px;height:920px;background:#FFFFFF;" version="1.1" viewBox="0 0 952 920" width="952px" zoomAndPan="magnify"><defs/><g><!--cluster my_cloud--><g id="cluster_my_cloud"><path d="M446.3579,16.9106 C449.751,7.9424 456.3398,7.4641 462.1744,14.4973 C466.7618,6.9957 473.1138,6.0377 478.8864,13.1411 C484.0994,6 491.1794,7.7764 493.9072,15.6305 C500.6192,8.1284 505.4413,9.8662 509.6567,18.1252 C514.884,21.2032 516.0289,26.3499 509.8711,29.6398 C514.7626,31.8025 514.6325,36.4401 510.4383,39.1449 C517.272,42.0808 517.723,46.4845 512.3438,51.3302 C517.6752,55.6197 516.7558,60.5536 510.4242,62.9096 C515.4783,65.4236 514.8051,69.3863 511.1352,72.5442 C515.7972,76.9999 515.9243,81.1536 509.9315,84.5403 C504.6256,92.0767 498.3961,92.1557 492.638,85.0752 C489.0812,92.0875 484.9418,94.5084 478.6576,87.868 C472.2554,94.876 467.0038,93.0396 463.5469,84.925 C458.1583,92.5682 452.5422,91.1147 448.0803,83.9566 C442.4441,81.7315 441.0422,77.9831 445.2988,73.1999 C438.7393,71.0108 438.4953,67.2258 442.9037,62.5662 C436.9098,60.125 436.8416,55.7198 441.6019,51.9589 C436.7363,47.9023 436.9587,43.4959 442.5624,40.302 C437.7014,35.3932 439.2036,32.2994 444.9355,29.7796 C439.5843,25.4034 439.6666,19.9558 446.3579,16.9106 " fill="none" style="stroke:#181818;stroke-width:1.0;"/><text fill="#000000" font-family="sans-serif" font-size="14" font-weight="bold" lengthAdjust="spacing" textLength="63" x="445.5" y="34.5052">Internet</text></g><!--cluster Host--><g id="cluster_Host"><polygon fill="none" points="16,259.5101,26,249.5101,935,249.5101,935,893.1401,925,903.1401,16,903.1401,16,259.5101" style="stroke:#181818;stroke-width:1.0;"/><line style="stroke:#181818;stroke-width:1.0;" x1="925" x2="935" y1="259.5101" y2="249.5101"/><line style="stroke:#181818;stroke-width:1.0;" x1="16" x2="925" y1="259.5101" y2="259.5101"/><line style="stroke:#181818;stroke-width:1.0;" x1="925" x2="925" y1="259.5101" y2="903.1401"/><text fill="#000000" font-family="sans-serif" font-size="14" font-weight="bold" lengthAdjust="spacing" textLength="36" x="453.5" y="275.5052">Host</text></g><!--cluster kind--><g id="cluster_kind"><polygon fill="none" points="152,387.5101,162,377.5101,919,377.5101,919,877.1401,909,887.1401,152,887.1401,152,387.5101" style="stroke:#181818;stroke-width:1.0;"/><line style="stroke:#181818;stroke-width:1.0;" x1="909" x2="919" y1="387.5101" y2="377.5101"/><line style="stroke:#181818;stroke-width:1.0;" x1="152" x2="909" y1="387.5101" y2="387.5101"/><line style="stroke:#181818;stroke-width:1.0;" x1="909" x2="909" y1="387.5101" y2="887.1401"/><text fill="#000000" font-family="sans-serif" font-size="14" font-weight="bold" lengthAdjust="spacing" textLength="174" x="444.5" y="403.5052">kind Docker container</text></g><!--cluster svcA--><g id="cluster_svcA"><rect fill="none" height="97.3" rx="2.5" ry="2.5" style="stroke:#181818;stroke-width:1.0;" width="272" x="179" y="604.9501"/><line style="stroke:#181818;stroke-width:1.0;" x1="179" x2="451" y1="625.247" y2="625.247"/><text fill="#000000" font-family="sans-serif" font-size="14" font-weight="bold" lengthAdjust="spacing" textLength="73" x="278.5" y="619.9452">Module A</text></g><!--cluster svcB--><g id="cluster_svcB"><rect fill="none" height="113.6" rx="2.5" ry="2.5" style="stroke:#181818;stroke-width:1.0;" width="144" x="583" y="596.8001"/><line style="stroke:#181818;stroke-width:1.0;" x1="583" x2="727" y1="617.097" y2="617.097"/><text fill="#000000" font-family="sans-serif" font-size="14" font-weight="bold" lengthAdjust="spacing" textLength="72" x="619" y="611.7952">Module B</text></g><!--cluster svcC--><g id="cluster_svcC"><rect fill="none" height="113.6" rx="2.5" ry="2.5" style="stroke:#181818;stroke-width:1.0;" width="144" x="751" y="596.8001"/><line style="stroke:#181818;stroke-width:1.0;" x1="751" x2="895" y1="617.097" y2="617.097"/><text fill="#000000" font-family="sans-serif" font-size="14" font-weight="bold" lengthAdjust="spacing" textLength="73" x="786.5" y="611.7952">Module C</text></g><!--cluster db--><g id="cluster_db"><rect fill="none" height="113.59" rx="2.5" ry="2.5" style="stroke:#181818;stroke-width:1.0;" width="249" x="525" y="749.5501"/><line style="stroke:#181818;stroke-width:1.0;" x1="525" x2="774" y1="769.847" y2="769.847"/><text fill="#000000" font-family="sans-serif" font-size="14" font-weight="bold" lengthAdjust="spacing" textLength="82" x="608.5" y="764.5452">Databases</text></g><text fill="#000000" font-family="sans-serif" font-size="14" lengthAdjust="spacing" textLength="36" x="504" y="110.5052">https</text><rect fill="#F1F1F1" height="12" style="stroke:#181818;stroke-width:1.5;" width="12" x="492" y="85.5101"/><text fill="#000000" font-family="sans-serif" font-size="14" lengthAdjust="spacing" textLength="36" x="501.5" y="211.9114">8000</text><text fill="#000000" font-family="sans-serif" font-size="14" lengthAdjust="spacing" textLength="107" x="500" y="228.2083">TLS termination</text><rect fill="#F1F1F1" height="12" style="stroke:#181818;stroke-width:1.5;" width="12" x="491.5" y="243.5101"/><text fill="#000000" font-family="sans-serif" font-size="14" lengthAdjust="spacing" textLength="36" x="278" y="228.2083">9000</text><rect fill="#F1F1F1" height="12" style="stroke:#181818;stroke-width:1.5;" width="12" x="290" y="243.5101"/><text fill="#000000" font-family="sans-serif" font-size="14" lengthAdjust="spacing" textLength="36" x="508" y="356.2083">8000</text><rect fill="#F1F1F1" height="12" style="stroke:#181818;stroke-width:1.5;" width="12" x="500" y="371.5101"/><text fill="#000000" font-family="sans-serif" font-size="14" lengthAdjust="spacing" textLength="36" x="332" y="356.2083">9000</text><rect fill="#F1F1F1" height="12" style="stroke:#181818;stroke-width:1.5;" width="12" x="332" y="371.5101"/><!--entity Traefik--><g id="elem_Traefik"><rect fill="#F1F1F1" height="46.2969" rx="2.5" ry="2.5" style="stroke:#181818;stroke-width:0.5;" width="86" x="484" y="472.5101"/><rect fill="#F1F1F1" height="10" style="stroke:#181818;stroke-width:0.5;" width="15" x="550" y="477.5101"/><rect fill="#F1F1F1" height="2" style="stroke:#181818;stroke-width:0.5;" width="4" x="548" y="479.5101"/><rect fill="#F1F1F1" height="2" style="stroke:#181818;stroke-width:0.5;" width="4" x="548" y="483.5101"/><text fill="#000000" font-family="sans-serif" font-size="14" lengthAdjust="spacing" textLength="46" x="499" y="505.5052">Traefik</text></g><!--entity podFE--><g id="elem_podFE"><rect fill="#F1F1F1" height="78.8906" rx="2.5" ry="2.5" style="stroke:#181818;stroke-width:0.5;" width="99" x="467.5" y="623.6601"/><rect fill="#F1F1F1" height="10" style="stroke:#181818;stroke-width:0.5;" width="15" x="546.5" y="628.6601"/><rect fill="#F1F1F1" height="2" style="stroke:#181818;stroke-width:0.5;" width="4" x="544.5" y="630.6601"/><rect fill="#F1F1F1" height="2" style="stroke:#181818;stroke-width:0.5;" width="4" x="544.5" y="634.6601"/><text fill="#000000" font-family="sans-serif" font-size="14" lengthAdjust="spacing" textLength="32" x="482.5" y="656.6552">Main</text><text fill="#000000" font-family="sans-serif" font-size="14" lengthAdjust="spacing" textLength="59" x="482.5" y="672.9521">frontend</text><text fill="#000000" font-family="sans-serif" font-size="14" lengthAdjust="spacing" textLength="35" x="482.5" y="689.2489">page</text></g><!--entity podA_Frontend--><g id="elem_podA_Frontend"><rect fill="#F1F1F1" height="46.2969" rx="2.5" ry="2.5" style="stroke:#181818;stroke-width:0.5;" width="103" x="195.5" y="639.9501"/><rect fill="#F1F1F1" height="10" style="stroke:#181818;stroke-width:0.5;" width="15" x="278.5" y="644.9501"/><rect fill="#F1F1F1" height="2" style="stroke:#181818;stroke-width:0.5;" width="4" x="276.5" y="646.9501"/><rect fill="#F1F1F1" height="2" style="stroke:#181818;stroke-width:0.5;" width="4" x="276.5" y="650.9501"/><text fill="#000000" font-family="sans-serif" font-size="14" lengthAdjust="spacing" textLength="63" x="210.5" y="672.9452">Frontend</text></g><!--entity podA_API--><g id="elem_podA_API"><rect fill="#F1F1F1" height="46.2969" rx="2.5" ry="2.5" style="stroke:#181818;stroke-width:0.5;" width="102" x="333" y="639.9501"/><rect fill="#F1F1F1" height="10" style="stroke:#181818;stroke-width:0.5;" width="15" x="415" y="644.9501"/><rect fill="#F1F1F1" height="2" style="stroke:#181818;stroke-width:0.5;" width="4" x="413" y="646.9501"/><rect fill="#F1F1F1" height="2" style="stroke:#181818;stroke-width:0.5;" width="4" x="413" y="650.9501"/><text fill="#000000" font-family="sans-serif" font-size="14" lengthAdjust="spacing" textLength="62" x="348" y="672.9452">REST API</text></g><!--entity podB--><g id="elem_podB"><rect fill="#F1F1F1" height="62.5938" rx="2.5" ry="2.5" style="stroke:#181818;stroke-width:0.5;" width="111" x="599.5" y="631.8001"/><rect fill="#F1F1F1" height="10" style="stroke:#181818;stroke-width:0.5;" width="15" x="690.5" y="636.8001"/><rect fill="#F1F1F1" height="2" style="stroke:#181818;stroke-width:0.5;" width="4" x="688.5" y="638.8001"/><rect fill="#F1F1F1" height="2" style="stroke:#181818;stroke-width:0.5;" width="4" x="688.5" y="642.8001"/><text fill="#000000" font-family="sans-serif" font-size="14" lengthAdjust="spacing" textLength="71" x="614.5" y="664.7952">Integrated</text><text fill="#000000" font-family="sans-serif" font-size="14" lengthAdjust="spacing" textLength="27" x="614.5" y="681.0921">App</text></g><!--entity podC--><g id="elem_podC"><rect fill="#F1F1F1" height="62.5938" rx="2.5" ry="2.5" style="stroke:#181818;stroke-width:0.5;" width="111" x="767.5" y="631.8001"/><rect fill="#F1F1F1" height="10" style="stroke:#181818;stroke-width:0.5;" width="15" x="858.5" y="636.8001"/><rect fill="#F1F1F1" height="2" style="stroke:#181818;stroke-width:0.5;" width="4" x="856.5" y="638.8001"/><rect fill="#F1F1F1" height="2" style="stroke:#181818;stroke-width:0.5;" width="4" x="856.5" y="642.8001"/><text fill="#000000" font-family="sans-serif" font-size="14" lengthAdjust="spacing" textLength="71" x="782.5" y="664.7952">Integrated</text><text fill="#000000" font-family="sans-serif" font-size="14" lengthAdjust="spacing" textLength="27" x="782.5" y="681.0921">App</text></g><!--entity db0--><g id="elem_db0"><rect fill="#F1F1F1" height="62.5938" rx="2.5" ry="2.5" style="stroke:#181818;stroke-width:0.5;" width="106" x="541" y="784.5501"/><rect fill="#F1F1F1" height="10" style="stroke:#181818;stroke-width:0.5;" width="15" x="627" y="789.5501"/><rect fill="#F1F1F1" height="2" style="stroke:#181818;stroke-width:0.5;" width="4" x="625" y="791.5501"/><rect fill="#F1F1F1" height="2" style="stroke:#181818;stroke-width:0.5;" width="4" x="625" y="795.5501"/><text fill="#000000" font-family="sans-serif" font-size="14" lengthAdjust="spacing" textLength="66" x="556" y="817.5452">Database</text><text fill="#000000" font-family="sans-serif" font-size="14" lengthAdjust="spacing" textLength="56" x="556" y="833.8421">server 0</text></g><!--entity db1--><g id="elem_db1"><rect fill="#F1F1F1" height="62.5938" rx="2.5" ry="2.5" style="stroke:#181818;stroke-width:0.5;" width="106" x="652" y="784.5501"/><rect fill="#F1F1F1" height="10" style="stroke:#181818;stroke-width:0.5;" width="15" x="738" y="789.5501"/><rect fill="#F1F1F1" height="2" style="stroke:#181818;stroke-width:0.5;" width="4" x="736" y="791.5501"/><rect fill="#F1F1F1" height="2" style="stroke:#181818;stroke-width:0.5;" width="4" x="736" y="795.5501"/><text fill="#000000" font-family="sans-serif" font-size="14" lengthAdjust="spacing" textLength="66" x="667" y="817.5452">Database</text><text fill="#000000" font-family="sans-serif" font-size="14" lengthAdjust="spacing" textLength="56" x="667" y="833.8421">server 1</text></g><!--link cloud443 to host8000--><g id="link_cloud443_host8000"><path d="M498,97.3501 C498,120.5901 498,220.6001 498,243.7201 " fill="none" id="cloud443-host8000" style="stroke:#181818;stroke-width:1.0;"/><text fill="#000000" font-family="sans-serif" font-size="13" lengthAdjust="spacing" textLength="128" x="506" y="152.577">Public reverse proxy</text><text fill="#000000" font-family="sans-serif" font-size="13" lengthAdjust="spacing" textLength="74" x="503" y="167.7098">(e.g. ngrok)</text><text fill="#000000" font-family="sans-serif" font-size="13" lengthAdjust="spacing" textLength="4" x="566" y="182.8426">&#160;</text><text fill="#000000" font-family="sans-serif" font-size="13" lengthAdjust="spacing" textLength="4" x="566" y="197.9754">&#160;</text></g><!--link host8000 to 8000--><g id="link_host8000_8000"><path d="M498.3,255.2901 C499.57,275.2501 504.43,351.7501 505.7,371.7201 " fill="none" id="host8000-8000" style="stroke:#181818;stroke-width:1.0;"/><text fill="#000000" font-family="sans-serif" font-size="13" lengthAdjust="spacing" textLength="138" x="503" y="310.577">(kubectl port-forward)</text><text fill="#000000" font-family="sans-serif" font-size="13" lengthAdjust="spacing" textLength="4" x="570" y="325.7098">&#160;</text></g><!--link host9000 to 9000--><g id="link_host9000_9000"><path d="M297.8,255.9201 C304.74,276.7401 329.66,351.4801 336.34,371.5301 " fill="none" id="host9000-9000" style="stroke:#181818;stroke-width:1.0;"/><text fill="#000000" font-family="sans-serif" font-size="13" lengthAdjust="spacing" textLength="138" x="322" y="310.577">(kubectl port-forward)</text><text fill="#000000" font-family="sans-serif" font-size="13" lengthAdjust="spacing" textLength="4" x="389" y="325.7098">&#160;</text></g><!--link 8000 to Traefik--><g id="link_8000_Traefik"><path d="M506.9,383.5001 C509.63,398.6101 517.94,444.5301 522.98,472.4001 " fill="none" id="8000-Traefik" style="stroke:#181818;stroke-width:1.0;"/><text fill="#000000" font-family="sans-serif" font-size="13" lengthAdjust="spacing" textLength="25" x="522" y="438.577">web</text></g><!--link 9000 to Traefik--><g id="link_9000_Traefik"><path d="M343.67,382.3801 C358.6,392.5301 400.3,420.6501 436,442.5101 C452.31,452.4901 470.54,463.0601 486.39,472.0501 " fill="none" id="9000-Traefik" style="stroke:#181818;stroke-width:1.0;"/><text fill="#000000" font-family="sans-serif" font-size="13" lengthAdjust="spacing" textLength="68" x="437" y="438.577">dashboard</text></g><!--link Traefik to podFE--><g id="link_Traefik_podFE"><path d="M525.65,518.9701 C524.04,545.6901 521.3,590.9201 519.34,623.3801 " fill="none" id="Traefik-podFE" style="stroke:#181818;stroke-width:1.0;"/><text fill="#000000" font-family="sans-serif" font-size="13" lengthAdjust="spacing" textLength="69" x="524" y="561.867">HTTPRoute</text><text fill="#000000" font-family="sans-serif" font-size="13" lengthAdjust="spacing" textLength="4" x="556.5" y="576.9998">/</text></g><!--link Traefik to podA_Frontend--><g id="link_Traefik_podA_Frontend"><path d="M483.75,511.8101 C475.59,514.3701 467.08,516.8301 459,518.8001 C380.22,538.0801 339.42,494.7001 279,548.8001 C253.27,571.8501 247.56,613.8401 246.66,639.7201 " fill="none" id="Traefik-podA_Frontend" style="stroke:#181818;stroke-width:1.0;"/><text fill="#000000" font-family="sans-serif" font-size="13" lengthAdjust="spacing" textLength="69" x="305" y="561.867">HTTPRoute</text><text fill="#000000" font-family="sans-serif" font-size="13" lengthAdjust="spacing" textLength="119" x="280" y="576.9998">/moduleA/frontend</text></g><!--link Traefik to podA_API--><g id="link_Traefik_podA_API"><path d="M483.52,511.5101 C464.36,519.9101 442.87,532.1301 428,548.8001 C404.69,574.9501 393.11,614.8201 387.85,639.6301 " fill="none" id="Traefik-podA_API" style="stroke:#181818;stroke-width:1.0;"/><text fill="#000000" font-family="sans-serif" font-size="13" lengthAdjust="spacing" textLength="69" x="436.5" y="561.867">HTTPRoute</text><text fill="#000000" font-family="sans-serif" font-size="13" lengthAdjust="spacing" textLength="84" x="429" y="576.9998">/moduleA/api</text></g><!--link Traefik to podB--><g id="link_Traefik_podB"><path d="M567.55,519.1801 C579.73,527.3501 592.39,537.4101 602,548.8001 C622.71,573.3801 637.19,607.4001 645.72,631.7401 " fill="none" id="Traefik-podB" style="stroke:#181818;stroke-width:1.0;"/><text fill="#000000" font-family="sans-serif" font-size="13" lengthAdjust="spacing" textLength="69" x="623" y="561.867">HTTPRoute</text><text fill="#000000" font-family="sans-serif" font-size="13" lengthAdjust="spacing" textLength="61" x="627" y="576.9998">/moduleB</text></g><!--link Traefik to podC--><g id="link_Traefik_podC"><path d="M570.31,503.9101 C606.91,511.3501 659.81,525.2301 701,548.8001 C738.88,570.4801 774.52,606.0101 797.38,631.5001 " fill="none" id="Traefik-podC" style="stroke:#181818;stroke-width:1.0;"/><text fill="#000000" font-family="sans-serif" font-size="13" lengthAdjust="spacing" textLength="69" x="746" y="561.867">HTTPRoute</text><text fill="#000000" font-family="sans-serif" font-size="13" lengthAdjust="spacing" textLength="61" x="750" y="576.9998">/moduleC</text></g><!--link podA_Frontend to podA_API--><g id="link_podA_Frontend_podA_API"><path d="M298.91,663.1001 C310.21,663.1001 321.51,663.1001 332.81,663.1001 " fill="none" id="podA_Frontend-podA_API" style="stroke:#181818;stroke-width:1.0;stroke-dasharray:7.0,7.0;"/></g><!--link podA_API to db0--><g id="link_podA_API_db0"><path d="M404.65,686.6801 C414.55,696.9201 426.88,708.8401 439,718.4001 C470.98,743.6201 509.91,767.8201 540.75,785.6701 " fill="none" id="podA_API-db0" style="stroke:#181818;stroke-width:1.0;stroke-dasharray:7.0,7.0;"/></g><!--link podB to db0--><g id="link_podB_db0"><path d="M642.66,694.6101 C632.11,720.6701 617,758.0001 606.43,784.1301 " fill="none" id="podB-db0" style="stroke:#181818;stroke-width:1.0;stroke-dasharray:7.0,7.0;"/></g><!--link podB to db1--><g id="link_podB_db1"><path d="M665.12,694.6101 C673.76,720.6701 686.14,758.0001 694.81,784.1301 " fill="none" id="podB-db1" style="stroke:#181818;stroke-width:1.0;stroke-dasharray:7.0,7.0;"/></g><!--link podC to db1--><g id="link_podC_db1"><path d="M799.12,694.6101 C778.72,720.6701 749.5,758.0001 729.05,784.1301 " fill="none" id="podC-db1" style="stroke:#181818;stroke-width:1.0;stroke-dasharray:7.0,7.0;"/></g><!--SRC=[XLDDJxD04BxlhvXmqaEHHW_M6w164qqQvIQDMM3Q4jfTihlu4UD_TzYor49VNxZixlCnmyv3lf5D0TwzCAW46W-uXktdQswFlnX0BPMHZG4FVZrhOsfjkPPuSN7ElXaJia2uazhqmb8Sw2w384W5_F4a3yz0dMnBmKqfXIsn9iTM-SjpHjiUQpUxsbvLYWAkPLwXWbmAmqk1oX8jGcsDkxfqNhiQXuI-a2q2BudYk2oh1IqVoJmLIqLbK1IfgFaA5osrbiNj3OESAxhOHraq6uJGckYtFBHt0o-tdSufmbTtOk6dc-S4mldz7gODW- -1RUHieywsdUDASOFKK5ZNJXwDfR6JndzBuxtqcXkUSOswXOgiqxdJL6XKRtJnmMA71yVXQGTFM-FsPIv3C9dqmuOh6i6yoJPb3Wf9fn5g9Jy-AJydwAzy42ibgzD1Vb8QYSTw4p9qPYTLas5kDdR0awLKx_H9fuuzwzYp_xATRvS4s-SxPXwRZO62wtKcIUanvew9OGFIudT9Cd-YduikvymRCFQ163AtTe3XcOlUM4bP-PU8r-MG7ntdHaDUV9mNqySTzkll4ylwVdpVHiBM6wsdpFftwny0]--></g></svg>